<svg id="Layer_1" data-name="Layer 1" xmlns="http://www.w3.org/2000/svg" viewBox="0 0 596.94 189.72"><title>burst-js</title><rect width="596.94" height="189.72" rx="4" fill="#fff"/><rect x="460.56" y="53.34" width="131.38" height="131.38" fill="#f6df18"/><path d="M519.76,155.64c0,6.17-2.56,7.76-6.61,7.76-4.24,0-6-2.91-7.95-6.35l-10.05,6.08c2.91,6.16,8.64,11.28,18.52,11.28,10.94,0,18.44-5.82,18.44-18.6V113.66H519.76Z"/><path d="M565.32,137.83l-3.08-1.32c-5.3-2.29-7.6-3.79-7.6-7.5,0-3,2.3-5.29,5.91-5.29s5.83,1.5,8,5.29l9.61-6.17C574,115.69,568.4,113,560.55,113c-11,0-18.08,7.05-18.08,16.3,0,10.06,5.92,14.81,14.83,18.61l3.09,1.32c5.63,2.46,9,4,9,8.19,0,3.54-3.26,6.09-8.38,6.09-6.09,0-9.53-3.17-12.18-7.49l-10,5.83c3.62,7.16,11,12.62,22.5,12.62,11.72,0,20.45-6.09,20.45-17.2C581.73,146.92,575.81,142.33,565.32,137.83Z"/><path d="M153.92,114.83c10-4.73,15.76-12.9,18.08-25.38l.85-4.56c1.8-9.76.56-17-3.79-22.28-5.21-6.26-14.77-9.3-29.23-9.3H101l-9.63,52-38.6,0-4.3,20.06H5l65,20.76,4.42-18.81H87.29L76.65,184.72h41.11c25.55,0,41.1-11,45-31.81l1.92-10.4C167.18,128.77,163.67,119.67,153.92,114.83Zm-17.43,25.72-2.07,11.12c-1.46,8-5.19,11.06-13.28,11.06h-11.9l6.57-35.46h9.44c5.43,0,8.7.89,10.3,2.81S137.44,135.41,136.49,140.55Zm7.6-54.34-1.32,7.11c-1.56,8.38-6.19,12-15.49,12h-7.4l5.56-30h10.34c3.7,0,6.12.75,7.4,2.29S144.86,82.05,144.09,86.21Z"/><path d="M235.79,53.34l-18.23,100c-1.37,7.51-5.43,10.86-13.19,10.86-3.75,0-6.33-.81-7.66-2.42s-1.67-4.2-1-7.77L214,53.34H185.58l-18,98.73c-1.87,10.26-.33,18.45,4.58,24.33,5.52,6.61,15,10,28.17,10,24.71,0,40.5-11.94,44.45-33.62l18.11-99.4Z"/><path d="M321.89,120.57c10.1-4.77,16.14-13.2,18.4-25.64l1.83-10c1.78-9.77.52-17-3.84-22.28-5.21-6.26-14.76-9.29-29.19-9.29H270.33L246.39,184.72h28.45l9.48-52h6.95c5.16,0,8.49,1,10.19,3s2.12,5.69,1.15,11l-3.66,20c-1.93,10.59-1.41,12.85-.63,16.26l.37,1.64h29.2l-.83-2.48c-1.48-4.37-.89-8.6.19-14.56L330.84,148C332.48,139,333.17,126.82,321.89,120.57Zm-8.47-34.33-2.29,12.58c-1.53,8.38-6.14,12-15.41,12h-7.4l6.47-35.46H305.1c3.69,0,6.11.75,7.39,2.29S314.18,82.08,313.42,86.24Z"/><path d="M391.34,51.88c-24.42,0-40,11.94-44,33.63-2.87,15.74,2.68,27,20.5,41.72,14.78,12.09,16.77,18.21,15.36,25.93C381.84,160.67,377.77,164,370,164c-3.74,0-6.32-.81-7.66-2.41s-1.66-4.21-1-7.78l2.06-11.32H336.29l-1.71,9.37c-1.87,10.26-.33,18.45,4.58,24.34,5.52,6.61,15,10,28.17,10,24.7,0,40.49-11.94,44.45-33.62,2.87-15.75-2.68-27-20.5-41.72-14.78-12.09-16.77-18.22-15.36-25.93s5.33-11,12.78-11c3.57,0,5.93.75,7.21,2.29s1.66,4.32,1,8.09l-1.36,7.49h27.11l1-5.55c1.88-10.35.35-18.58-4.57-24.46C413.64,55.19,404.3,51.88,391.34,51.88Z"/><polygon points="510.79 53.34 430.79 53.34 426.77 75.32 452.55 75.32 432.62 184.72 461.08 184.72 481.01 75.32 506.79 75.32 510.79 53.34"/><path d="M111.45,26.22h9a15.1,15.1,0,0,0,4.92-.79,12.71,12.71,0,0,0,4.1-2.27,10.72,10.72,0,0,0,2.82-3.63,11,11,0,0,0,1-4.89,11,11,0,0,0-.86-4.59,7.56,7.56,0,0,0-2.39-3,9.81,9.81,0,0,0-3.64-1.59A20.12,20.12,0,0,0,121.82,5H108.57l-6.85,33.08h7.22Zm3.24-15.57h6.21a9.48,9.48,0,0,1,1.87.19,5.27,5.27,0,0,1,1.65.62,3.23,3.23,0,0,1,1.18,1.25,4.38,4.38,0,0,1,.44,2.07,5.56,5.56,0,0,1-1.6,4.38,6.37,6.37,0,0,1-4.38,1.41h-7.41Z"/><path d="M150.07,38.82a17.27,17.27,0,0,0,7.71-1.64,16.64,16.64,0,0,0,5.65-4.47,20.11,20.11,0,0,0,3.5-6.53,25.19,25.19,0,0,0,1.21-7.79,16.52,16.52,0,0,0-1-6.12,11.81,11.81,0,0,0-7.57-7.15,19.05,19.05,0,0,0-6.07-.91,17.12,17.12,0,0,0-7.53,1.62,17.39,17.39,0,0,0-5.7,4.38,19.63,19.63,0,0,0-3.59,6.37,23.07,23.07,0,0,0-1.25,7.65q0,7.1,3.82,10.84T150.07,38.82ZM143.3,19.39a15.09,15.09,0,0,1,2-4.5,10.83,10.83,0,0,1,3.38-3.29,9,9,0,0,1,4.84-1.27,7.65,7.65,0,0,1,3.43.69,6.41,6.41,0,0,1,2.27,1.86,7.47,7.47,0,0,1,1.28,2.71,13.53,13.53,0,0,1,.39,3.31,18.12,18.12,0,0,1-.67,4.82,15.13,15.13,0,0,1-2,4.47,11.23,11.23,0,0,1-3.33,3.29,8.5,8.5,0,0,1-4.68,1.27,7.71,7.71,0,0,1-3.41-.69,6.37,6.37,0,0,1-2.31-1.88,8,8,0,0,1-1.35-2.71,11.79,11.79,0,0,1-.44-3.24A19.14,19.14,0,0,1,143.3,19.39Z"/><polygon points="182.46 38.08 192.75 14.45 192.84 14.45 193.68 38.08 200.91 38.08 216.43 5 209.15 5 199.05 29.14 198.96 29.14 198.13 5 191.18 5 180.7 29.23 180.61 29.23 180.15 5 172.87 5 175.14 38.08 182.46 38.08"/><polygon points="238.83 38.08 240.13 31.97 221.87 31.97 223.58 23.86 240.22 23.86 241.42 18.21 224.79 18.21 226.27 11.12 244.25 11.12 245.5 5 220.25 5 213.34 38.08 238.83 38.08"/><path d="M252,38.08l2.73-12.92h6.86a10.69,10.69,0,0,1,1.95.16,3.75,3.75,0,0,1,1.5.62,3,3,0,0,1,1,1.23,4.67,4.67,0,0,1,.35,2,31.8,31.8,0,0,1-.18,3.36,29.36,29.36,0,0,0-.19,3.36,6.59,6.59,0,0,0,.09,1.09c.07.35.14.73.24,1.13h7.08a7.29,7.29,0,0,1-.37-1.73c-.06-.67-.09-1.37-.09-2.11,0-1,0-2.05.12-3.08s.11-1.93.11-2.67a9,9,0,0,0-.69-3.59,4.17,4.17,0,0,0-2.74-2.25v-.09a8.26,8.26,0,0,0,3.06-1,8.86,8.86,0,0,0,2.41-2,8.62,8.62,0,0,0,1.58-2.71,9.28,9.28,0,0,0,.55-3.2,10.65,10.65,0,0,0-.69-4.07,6.8,6.8,0,0,0-2-2.71,7.92,7.92,0,0,0-3.13-1.49A16.14,16.14,0,0,0,267.46,5h-15.8l-6.9,33.08Zm5.79-27.43h6.9a14.86,14.86,0,0,1,2,.14,4.84,4.84,0,0,1,1.72.56,3.11,3.11,0,0,1,1.18,1.23,4.53,4.53,0,0,1,.44,2.15,4.39,4.39,0,0,1-.63,2.39,5,5,0,0,1-1.66,1.62,8.33,8.33,0,0,1-2.39.93,13,13,0,0,1-2.83.3h-6.72Z"/><polygon points="305.5 31.97 287.24 31.97 288.95 23.86 305.59 23.86 306.79 18.21 290.16 18.21 291.64 11.12 309.62 11.12 310.87 5 285.62 5 278.71 38.08 304.2 38.08 305.5 31.97"/><path d="M323.94,38.08a21.18,21.18,0,0,0,8.36-1.53,16.38,16.38,0,0,0,6-4.24,18,18,0,0,0,3.59-6.41,25.92,25.92,0,0,0,1.2-8q0-6.16-3.52-9.52T329,5H317.08l-6.95,33.08Zm-.84-27h5.47a8.38,8.38,0,0,1,3.31.58,5.76,5.76,0,0,1,2.25,1.64,6.49,6.49,0,0,1,1.27,2.53,12.18,12.18,0,0,1,.4,3.26,15.71,15.71,0,0,1-.77,5,12.49,12.49,0,0,1-2.22,4.08A10.47,10.47,0,0,1,329.2,31a11.45,11.45,0,0,1-4.94,1h-5.61Z"/><path d="M381.58,37.39a12.86,12.86,0,0,0,4-2,9.81,9.81,0,0,0,2.8-3.38,10.2,10.2,0,0,0,1-4.73A7.24,7.24,0,0,0,388.18,23a6.32,6.32,0,0,0-3.64-2.48v-.09a6.51,6.51,0,0,0,2.62-.88,7.05,7.05,0,0,0,1.95-1.74,7.25,7.25,0,0,0,1.22-2.36,8.92,8.92,0,0,0,.42-2.71A8.81,8.81,0,0,0,390,8.87a5.66,5.66,0,0,0-2.13-2.36,9.19,9.19,0,0,0-3.38-1.19A29,29,0,0,0,380,5H366.1l-6.9,33.08h17.6A16.4,16.4,0,0,0,381.58,37.39Zm-9.64-26.74h7.69a4.84,4.84,0,0,1,2.8.72A3,3,0,0,1,383.48,14,3.8,3.8,0,0,1,382,17.3a5.61,5.61,0,0,1-3.45,1.09h-8.25Zm-4.59,21.78,1.95-9.08h7.13c.65,0,1.32,0,2,.09a5.49,5.49,0,0,1,1.85.49,3.15,3.15,0,0,1,1.9,3.17,4.92,4.92,0,0,1-1.6,4,6.17,6.17,0,0,1-4.1,1.34Z"/><polygon points="406.49 19.09 401.53 5 394.07 5 401.99 25.25 399.35 38.08 406.67 38.08 409.22 25.57 425.34 5 416.77 5 406.49 19.09"/></svg>