<svg xmlns="http://www.w3.org/2000/svg" width="156.978" height="40" viewBox="0 0 156.978 40">
  <g id="Gruppe_8923" data-name="Gruppe 8923" transform="translate(894.301 258.951)">
    <g id="Gruppe_8922" data-name="Gruppe 8922" transform="translate(-894.301 -258.951)">
      <g id="Pfad_8" data-name="Pfad 8">
        <path id="Pfad_17960" data-name="Pfad 17960" d="M-853.938-239.307A20.077,20.077,0,0,1-873.5-218.963,20.118,20.118,0,0,1-894.3-238.371a20.114,20.114,0,0,1,19.644-20.574l.284,0A20.114,20.114,0,0,1-853.938-239.307Zm-25.667,3.238a3.725,3.725,0,0,0,.53-5.246c-.043-.052-.087-.1-.133-.153-1.621-1.722-3.339-3.355-5.014-5.029-.257-.257-.5-.529-.687-.728a35.827,35.827,0,0,0-2.689,2.574,3.721,3.721,0,0,0,.476,5.235l1.627-1.6c-.878-1.183-.744-2.028.5-2.885q2.056,2.032,4.115,4.074a.842.842,0,0,1,.132.258,1.6,1.6,0,0,1-.457,1.885Zm16.37,2.059c-1.349-1.334-2.716-2.657-4.039-4.018a1.261,1.261,0,0,1-.322-.9,6.9,6.9,0,0,1,.428-1.363l-1.558-1.544c-.033.029-.1.081-.155.139a3.862,3.862,0,0,0,.013,5.466c.052.051.106.1.16.151,1.721,1.724,3.459,3.433,5.191,5.148.09.089.194.163.27.226.852-.826,1.708-1.6,2.49-2.44a3.752,3.752,0,0,0,.728-1.288,3.625,3.625,0,0,0-1.142-4.04l-1.593,1.589c.887,1.24.8,1.844-.471,2.873Zm-10.52-17.725c.307.282.6.534.869.8s.517.545.766.81c1.205-1.032,2.006-.915,3.008.381-.109.115-.217.238-.334.353q-1.633,1.622-3.268,3.24c-1,.987-1.609,1.021-2.623.191l-1.678,1.611a3.893,3.893,0,0,0,5.492.315c.044-.04.088-.08.131-.122,1.822-1.786,3.627-3.589,5.438-5.386.07-.07.124-.147.209-.25-.762-.753-1.5-1.493-2.252-2.226a3.9,3.9,0,0,0-5.509,0c-.087.088-.171.179-.249.275Zm2.517,18.166a3.833,3.833,0,0,0-5.4-.389l-.041.036c-1.168,1.071-2.268,2.215-3.4,3.328-.807.8-1.611,1.594-2.382,2.355.853.873,1.643,1.759,2.516,2.554a3.654,3.654,0,0,0,3.148.831,3.658,3.658,0,0,0,2.274-1.282c-.509-.5-.985-.965-1.462-1.43-.058-.057-.124-.107-.182-.158-1.253.886-2.12.736-2.925-.5,1.309-1.306,2.614-2.62,3.933-3.917a1.379,1.379,0,0,1,1.4-.34,4.393,4.393,0,0,1,.911.507Zm2.152,5.344c-1.064,1.4-2.107,1.44-3.2.255-.905-.98-1.886-1.889-2.836-2.826-.1-.1-.216-.185-.282-.241l-1.516,1.484c1.274,1.336,2.49,2.763,3.868,4.014a3.555,3.555,0,0,0,4.355.139,37.763,37.763,0,0,0,2.925-2.677l-2.943-2.892-1.62,1.612Zm-2.162-20.249c-1.253-1.256-2.464-2.567-3.781-3.765a3.7,3.7,0,0,0-4.687-.182c-1,.783-1.87,1.739-2.729,2.547l2.944,2.913,1.614-1.612c-.191-.173-.406-.382-.638-.572s-.475-.354-.792-.588c.309-.25.46-.356.593-.482a1.568,1.568,0,0,1,2.2-.245,1.517,1.517,0,0,1,.258.262q.571.561,1.137,1.127l2.233,2.223Zm6.609,12.4c1.374-1.315,2.748-2.495,3.953-3.826a3.647,3.647,0,0,0-.015-4.848c-.79-.877-1.687-1.659-2.476-2.425l-2.852,2.844,1.621,1.674,1.233-1.333c.149.17.272.329.414.47a1.528,1.528,0,0,1,.29,2.145,1.523,1.523,0,0,1-.29.29c-.364.368-.734.73-1.1,1.094l-2.32,2.3c.084.1.132.166.187.223.463.477.927.957,1.354,1.4Zm-20.376,2.168c-.175-.2-.279-.335-.394-.452a1.558,1.558,0,0,1-.006-2.541q1.224-1.216,2.451-2.427c.3-.3.623-.582.862-.8l-1.712-1.686c-1.122,1.118-2.293,2.281-3.46,3.446a3.684,3.684,0,0,0-.517,4.782,32.149,32.149,0,0,0,2.674,2.883l2.9-2.874-1.634-1.611Zm6.978.413-4.916-4.873-1.54,1.473,4.944,4.9Zm5.928,4.841,5-4.952-1.511-1.507-5,4.949Zm-4.025-20.58-5.025,4.979,1.48,1.478,5.03-4.981Zm5.9,4.836,4.928,4.869,1.506-1.5-4.922-4.88Z" transform="translate(894.301 258.951)" fill="#fff"/>
      </g>
    </g>
    <g id="Amazing_Business_Ideas" data-name="Amazing Business Ideas" transform="translate(-843.534 -251.174)" style="isolation: isolate">
      <g id="Gruppe_9136" data-name="Gruppe 9136" style="isolation: isolate">
        <path id="Pfad_17961" data-name="Pfad 17961" d="M-817.6-224.618a10.746,10.746,0,0,1-3.555-1.67l1.57-3.483a10.642,10.642,0,0,0,3.055,1.513,11.488,11.488,0,0,0,3.54.571,5.651,5.651,0,0,0,2.912-.586,1.768,1.768,0,0,0,.942-1.556,1.487,1.487,0,0,0-.556-1.185,4.209,4.209,0,0,0-1.428-.757q-.871-.285-2.356-.628a32.549,32.549,0,0,1-3.74-1.085,6.071,6.071,0,0,1-2.5-1.742,4.7,4.7,0,0,1-1.042-3.2,5.56,5.56,0,0,1,.942-3.155,6.335,6.335,0,0,1,2.841-2.242,11.584,11.584,0,0,1,4.639-.829,15.375,15.375,0,0,1,3.74.458,11.064,11.064,0,0,1,3.2,1.313l-1.428,3.512a11.146,11.146,0,0,0-5.539-1.57,5.193,5.193,0,0,0-2.869.629,1.915,1.915,0,0,0-.928,1.656,1.618,1.618,0,0,0,1.07,1.527,16.785,16.785,0,0,0,3.269.985,32.657,32.657,0,0,1,3.74,1.085,6.2,6.2,0,0,1,2.5,1.713,4.594,4.594,0,0,1,1.042,3.168,5.464,5.464,0,0,1-.956,3.127,6.424,6.424,0,0,1-2.87,2.24,11.692,11.692,0,0,1-4.654.829A16.349,16.349,0,0,1-817.6-224.618Z" transform="translate(821.156 246.788)" fill="#fff"/>
        <path id="Pfad_17962" data-name="Pfad 17962" d="M-795.253-243.467a2.317,2.317,0,0,1-.77-1.77,2.317,2.317,0,0,1,.77-1.77,2.828,2.828,0,0,1,2-.714,2.894,2.894,0,0,1,2,.685,2.2,2.2,0,0,1,.771,1.713,2.423,2.423,0,0,1-.771,1.841,2.794,2.794,0,0,1-2,.728A2.828,2.828,0,0,1-795.253-243.467Zm-.228,2.855h4.454v15.361h-4.454Z" transform="translate(813.525 247.721)" fill="#fff"/>
        <path id="Pfad_17963" data-name="Pfad 17963" d="M-769.606-237.612v12.79q0,4.225-2.2,6.282t-6.424,2.056a16.1,16.1,0,0,1-4.226-.542,9.24,9.24,0,0,1-3.312-1.57l1.77-3.2a7.287,7.287,0,0,0,2.455,1.27,9.771,9.771,0,0,0,2.969.471,4.817,4.817,0,0,0,3.412-1.042,4.156,4.156,0,0,0,1.1-3.155v-.657a6.231,6.231,0,0,1-4.854,1.913,8.143,8.143,0,0,1-3.868-.928,7.06,7.06,0,0,1-2.784-2.613,7.3,7.3,0,0,1-1.028-3.882,7.306,7.306,0,0,1,1.028-3.883,7.079,7.079,0,0,1,2.784-2.613,8.151,8.151,0,0,1,3.868-.928,6.1,6.1,0,0,1,5.082,2.2v-1.97Zm-5.524,9.921A3.54,3.54,0,0,0-774-230.417a3.542,3.542,0,0,0-1.127-2.727,4.1,4.1,0,0,0-2.9-1.042,4.155,4.155,0,0,0-2.912,1.042,3.519,3.519,0,0,0-1.142,2.727,3.517,3.517,0,0,0,1.142,2.726,4.152,4.152,0,0,0,2.912,1.042A4.1,4.1,0,0,0-775.13-227.69Z" transform="translate(810.662 244.721)" fill="#fff"/>
        <path id="Pfad_17964" data-name="Pfad 17964" d="M-744.356-236.127a6.793,6.793,0,0,1,1.756,5.082v8.794h-4.454v-8.109a4.008,4.008,0,0,0-.8-2.727,2.931,2.931,0,0,0-2.313-.9,3.545,3.545,0,0,0-2.684,1.042,4.315,4.315,0,0,0-1,3.1v7.595H-758.3v-15.361h4.254v1.8a5.912,5.912,0,0,1,2.2-1.5,7.669,7.669,0,0,1,2.884-.528A6.321,6.321,0,0,1-744.356-236.127Z" transform="translate(802.073 244.721)" fill="#fff"/>
        <path id="Pfad_17965" data-name="Pfad 17965" d="M-716.585-237.512v15.361h-4.226v-1.827a5.9,5.9,0,0,1-2.113,1.527,6.646,6.646,0,0,1-2.655.529,6.541,6.541,0,0,1-4.8-1.742,6.943,6.943,0,0,1-1.77-5.168v-8.68h4.454v8.023q0,3.711,3.112,3.712a3.345,3.345,0,0,0,2.57-1.042,4.4,4.4,0,0,0,.971-3.1v-7.594Z" transform="translate(794.13 244.621)" fill="#fff"/>
        <path id="Pfad_17966" data-name="Pfad 17966" d="M-681.651-236.142a6.926,6.926,0,0,1,1.7,5.1v8.794h-4.454v-8.109a4.166,4.166,0,0,0-.757-2.727,2.659,2.659,0,0,0-2.155-.9,3.18,3.18,0,0,0-2.484,1.013,4.369,4.369,0,0,0-.914,3.012v7.71h-4.454v-8.109q0-3.626-2.912-3.626a3.145,3.145,0,0,0-2.455,1.013,4.369,4.369,0,0,0-.914,3.012v7.71h-4.454v-15.361h4.254v1.77a5.628,5.628,0,0,1,2.1-1.485,7.072,7.072,0,0,1,2.726-.513,6.611,6.611,0,0,1,2.941.642,5.213,5.213,0,0,1,2.113,1.87,6.317,6.317,0,0,1,2.384-1.856,7.529,7.529,0,0,1,3.155-.656A6.194,6.194,0,0,1-681.651-236.142Z" transform="translate(786.164 244.721)" fill="#fff"/>
      </g>
    </g>
  </g>
</svg>
