<svg xmlns="http://www.w3.org/2000/svg" xmlns:xlink="http://www.w3.org/1999/xlink" viewBox="0 0 197.93 209.12"><defs><style>.cls-1{fill:none;}.cls-2{fill:#f7df1e;}.cls-3{clip-path:url(#clip-path);}.cls-4{opacity:0.1;}</style><clipPath id="clip-path"><rect class="cls-1" width="179.87" height="179.87" rx="17.13"/></clipPath></defs><g id="Ebene_2" data-name="Ebene 2"><g id="Ebene_1-2" data-name="Ebene 1"><rect class="cls-2" width="179.87" height="179.87" rx="17.13"/><g class="cls-3"><g class="cls-4"><rect x="93.32" y="144.48" width="10.21" height="29.6" transform="translate(-83.8 116.25) rotate(-45)"/><path d="M107.13,93.43l6.54-6.54a3.17,3.17,0,0,1,4.47,0L137.26,106l7.22-7.22L125.35,79.67a13.38,13.38,0,0,0-18.9,0L92.69,93.43,105.28,106l7.22-7.22Z"/><path d="M82.24,166.56,75.7,160a3.16,3.16,0,0,1,0-4.46l19.12-19.13-7.22-7.22L68.48,148.34a13.38,13.38,0,0,0,0,18.9L82.24,181l12.58-12.58L87.6,161.2Z"/><path d="M144.36,86.89a3.17,3.17,0,0,1,4.47,0l6.54,6.54-21.89,21.89a3.16,3.16,0,0,1-4.46,0l-3.79-3.78L118,118.76l3.78,3.78a13.38,13.38,0,0,0,18.9,0l13.76-13.76L169.8,93.43,156,79.67a13.38,13.38,0,0,0-18.9,0L134,82.81,141.23,90Z"/><rect x="99.62" y="104.52" width="29.6" height="10.21" transform="translate(-44 113.01) rotate(-45)"/><path d="M180.26,118.33l6.54,6.54a3.16,3.16,0,0,1,0,4.46l-19.13,19.13,7.22,7.22L194,136.55a13.38,13.38,0,0,0,0-18.9l-13.76-13.76-12.59,12.58,7.22,7.22Z"/><rect x="158.97" y="110.81" width="10.21" height="29.6" transform="translate(-40.77 152.81) rotate(-45)"/><path d="M186.8,155.56a3.16,3.16,0,0,1,0,4.46l-6.54,6.54-21.89-21.88a3.17,3.17,0,0,1,0-4.47l3.78-3.78-7.21-7.22L151.16,133a13.38,13.38,0,0,0,0,18.91L180.26,181,194,167.24a13.38,13.38,0,0,0,0-18.9l-3.14-3.14-7.22,7.22Z"/><path d="M75.7,129.33a3.16,3.16,0,0,1,0-4.46l6.54-6.54,21.88,21.88a3.17,3.17,0,0,1,0,4.47l-3.78,3.78,7.22,7.22,3.78-3.78a13.39,13.39,0,0,0,0-18.91l-29.1-29.1L68.48,117.65a13.38,13.38,0,0,0,0,18.9l3.13,3.14,7.22-7.22Z"/><rect x="133.28" y="170.17" width="29.6" height="10.21" transform="translate(-80.56 156.04) rotate(-45)"/><path d="M155.37,191.46,148.83,198a3.17,3.17,0,0,1-4.47,0l-19.12-19.13L118,186.09l19.12,19.13a13.38,13.38,0,0,0,18.9,0l13.76-13.76-12.58-12.59L150,186.09Z"/><path d="M118.14,198a3.17,3.17,0,0,1-4.47,0l-6.54-6.54L129,169.57a3.16,3.16,0,0,1,4.46,0l3.78,3.78,7.22-7.22-3.78-3.78a13.38,13.38,0,0,0-18.9,0L92.69,191.46l13.76,13.76a13.37,13.37,0,0,0,18.9,0l3.14-3.13-7.22-7.22Z"/></g></g><path d="M135.54,150.57c2.34,3.82,5.39,6.64,10.79,6.64,4.53,0,7.42-2.27,7.42-5.4,0-3.75-3-5.07-8-7.26l-2.73-1.17c-7.89-3.36-13.14-7.57-13.14-16.48,0-8.2,6.25-14.44,16-14.44,6.95,0,11.95,2.42,15.55,8.75L153,126.68c-1.88-3.36-3.9-4.68-7-4.68s-5.23,2-5.23,4.68c0,3.28,2,4.61,6.72,6.64l2.74,1.17c9.29,4,14.53,8,14.53,17.18,0,9.85-7.73,15.24-18.12,15.24-10.16,0-16.72-4.84-19.93-11.18Zm-38.63,1c1.72,3,3.28,5.62,7,5.62,3.59,0,5.86-1.41,5.86-6.87V113.08h10.93v37.34c0,11.32-6.64,16.47-16.33,16.47-8.75,0-13.83-4.53-16.4-10Z"/><g id="Amazing_Business_Ideas" data-name="Amazing Business Ideas"><g id="Gruppe_9136" data-name="Gruppe 9136"><path id="Pfad_17961" data-name="Pfad 17961" d="M18.15,47a15.21,15.21,0,0,1-5.07-2.38l2.24-5a15,15,0,0,0,4.35,2.16,16.31,16.31,0,0,0,5,.81,8.12,8.12,0,0,0,4.15-.83,2.53,2.53,0,0,0,1.34-2.22,2.1,2.1,0,0,0-.79-1.69,6,6,0,0,0-2-1.07c-.83-.28-1.95-.57-3.36-.9a47.62,47.62,0,0,1-5.33-1.54,8.79,8.79,0,0,1-3.56-2.49,6.69,6.69,0,0,1-1.48-4.55A7.92,7.92,0,0,1,15,22.83a9.08,9.08,0,0,1,4-3.19,16.61,16.61,0,0,1,6.61-1.18,22.34,22.34,0,0,1,5.33.65A15.72,15.72,0,0,1,35.53,21l-2,5a15.8,15.8,0,0,0-7.89-2.24,7.45,7.45,0,0,0-4.09.89A2.72,2.72,0,0,0,20.2,27a2.31,2.31,0,0,0,1.52,2.18,24.29,24.29,0,0,0,4.66,1.4,46.47,46.47,0,0,1,5.33,1.55,8.84,8.84,0,0,1,3.56,2.44,6.54,6.54,0,0,1,1.48,4.51,7.72,7.72,0,0,1-1.36,4.46,9.13,9.13,0,0,1-4.09,3.19,16.68,16.68,0,0,1-6.63,1.18A22.83,22.83,0,0,1,18.15,47Z"/><path id="Pfad_17962" data-name="Pfad 17962" d="M39.11,21.47a3.46,3.46,0,0,1,0-5,4,4,0,0,1,2.85-1,4.11,4.11,0,0,1,2.85,1,3.18,3.18,0,0,1,1.1,2.44,3.51,3.51,0,0,1-1.1,2.63,4,4,0,0,1-2.85,1A4,4,0,0,1,39.11,21.47Zm-.32,4.07h6.34V47.42H38.79Z"/><path id="Pfad_17963" data-name="Pfad 17963" d="M71.57,25.54V43.76q0,6-3.13,9t-9.15,2.93a23.07,23.07,0,0,1-6-.77,13.34,13.34,0,0,1-4.72-2.24l2.52-4.56a10.34,10.34,0,0,0,3.5,1.81,13.81,13.81,0,0,0,4.23.67q3.3,0,4.86-1.48a5.89,5.89,0,0,0,1.57-4.49v-.94a8.88,8.88,0,0,1-6.92,2.72A11.49,11.49,0,0,1,52.8,45a10.08,10.08,0,0,1-4-3.72,10.44,10.44,0,0,1-1.46-5.53,10.42,10.42,0,0,1,1.46-5.53,10.17,10.17,0,0,1,4-3.73,11.72,11.72,0,0,1,5.51-1.32,8.67,8.67,0,0,1,7.24,3.14V25.54ZM63.7,39.67a5.05,5.05,0,0,0,1.61-3.88A5.06,5.06,0,0,0,63.7,31.9a5.85,5.85,0,0,0-4.13-1.48,5.91,5.91,0,0,0-4.15,1.48,5,5,0,0,0-1.62,3.89,5,5,0,0,0,1.62,3.88,6,6,0,0,0,4.15,1.49,5.86,5.86,0,0,0,4.13-1.49Z"/><path id="Pfad_17964" data-name="Pfad 17964" d="M95.31,27.65q2.5,2.45,2.5,7.24V47.42H91.46V35.87A5.69,5.69,0,0,0,90.32,32,4.16,4.16,0,0,0,87,30.7a5.08,5.08,0,0,0-3.82,1.49,6.14,6.14,0,0,0-1.43,4.41V47.42H75.44V25.54H81.5V28.1A8.53,8.53,0,0,1,84.63,26a11.12,11.12,0,0,1,4.11-.75A9,9,0,0,1,95.31,27.65Z"/><path id="Pfad_17965" data-name="Pfad 17965" d="M123.56,25.54V47.42h-6v-2.6a8.42,8.42,0,0,1-3,2.17,9.51,9.51,0,0,1-3.79.76,9.3,9.3,0,0,1-6.83-2.49q-2.52-2.48-2.52-7.36V25.54h6.34V37q0,5.28,4.44,5.28a4.77,4.77,0,0,0,3.66-1.48,6.27,6.27,0,0,0,1.38-4.41V25.54Z"/><path id="Pfad_17966" data-name="Pfad 17966" d="M162,27.63c1.61,1.61,2.42,4,2.42,7.26V47.42h-6.35V35.87A5.91,5.91,0,0,0,157,32a3.81,3.81,0,0,0-3.07-1.29,4.56,4.56,0,0,0-3.54,1.45,6.25,6.25,0,0,0-1.3,4.29v11h-6.34V35.87c0-3.44-1.39-5.17-4.15-5.17a4.51,4.51,0,0,0-3.5,1.45,6.2,6.2,0,0,0-1.3,4.29v11h-6.35V25.54h6.06v2.52a8.1,8.1,0,0,1,3-2.12,10.37,10.37,0,0,1,3.89-.73,9.49,9.49,0,0,1,4.19.92,7.37,7.37,0,0,1,3,2.66A9,9,0,0,1,151,26.15a10.91,10.91,0,0,1,4.5-.94A8.85,8.85,0,0,1,162,27.63Z"/></g></g></g></g></svg>