<svg xmlns:xlink="http://www.w3.org/1999/xlink" id="Layer_1" data-name="Layer 1" xmlns="http://www.w3.org/2000/svg"
     viewBox="0 0 292.862 79.37">
    <defs>
        <linearGradient id="linear-gradient" x1="237.931" y1="39.529" x2="245.83" y2="39.529"
                        gradientUnits="userSpaceOnUse">
            <stop offset="0" stop-color="#33a3dc"/>
            <stop offset="1" stop-color="#005490"/>
        </linearGradient>
        <linearGradient id="linear-gradient-2" x1="209.455" y1="39.487" x2="286.723" y2="39.487"
                        xlink:href="#linear-gradient"/>
        <linearGradient id="linear-gradient-3" x1="24.444" y1="48.761" x2="59.27" y2="48.761"
                        gradientTransform="translate(0.138 -0.115) rotate(0.187)" xlink:href="#linear-gradient"/>
        <linearGradient id="linear-gradient-4" x1="2.145" y1="39.659" x2="39.961" y2="39.659"
                        gradientTransform="translate(0.138 -0.115) rotate(0.187)" xlink:href="#linear-gradient"/>
        <linearGradient id="linear-gradient-5" x1="21.606" y1="73.064" x2="56.433" y2="73.064"
                        gradientTransform="translate(0.138 -0.115) rotate(0.187)" gradientUnits="userSpaceOnUse">
            <stop offset="0" stop-color="#408fcd"/>
            <stop offset="1" stop-color="#09508b"/>
        </linearGradient>
        <linearGradient id="linear-gradient-6" x1="21.606" y1="73.3" x2="56.433" y2="73.3"
                        xlink:href="#linear-gradient-5"/>
    </defs>
    <title>sticker-burst-1</title>
    <path d="M283.149,62.682H53.155a2.046,2.046,0,0,1-2.047-2.047v-41.9a2.046,2.046,0,0,1,2.047-2.047H290.814a2.047,2.047,0,0,1,2.014,2.415L285.163,61A2.047,2.047,0,0,1,283.149,62.682Z"
          fill="#fff"/>
    <path d="M121.328,38.59c2.545-1.208,4.021-3.29,4.613-6.476l.216-1.163c.461-2.489.145-4.348-.966-5.683-1.328-1.6-3.767-2.373-7.456-2.373h-9.906l-2.457,13.26-9.847-.005-1.1,5.119H83.339l16.577,5.3,1.127-4.8h3.289l-2.715,14.653H112.1c6.519,0,10.484-2.8,11.466-8.114l.491-2.653C124.711,42.145,123.817,39.825,121.328,38.59Zm-4.447,6.562-.526,2.837c-.374,2.029-1.324,2.82-3.389,2.82h-3.035l1.676-9.047h2.409c1.384,0,2.219.229,2.626.719S117.124,43.84,116.881,45.152Zm1.939-13.864-.336,1.814c-.4,2.139-1.578,3.052-3.95,3.052h-1.889l1.418-7.653H116.7a2.37,2.37,0,0,1,1.888.584A2.7,2.7,0,0,1,118.82,31.288Z"
          fill="#130c0e"/>
    <path d="M142.213,22.9l-4.649,25.51a2.991,2.991,0,0,1-3.366,2.77,2.475,2.475,0,0,1-1.954-.617,2.408,2.408,0,0,1-.258-1.982l4.68-25.681h-7.261l-4.59,25.185c-.476,2.617-.083,4.706,1.17,6.208,1.408,1.687,3.825,2.542,7.185,2.542,6.3,0,10.332-3.047,11.341-8.579l4.62-25.356Z"
          fill="#130c0e"/>
    <path d="M164.179,40.055a8.324,8.324,0,0,0,4.693-6.543l.467-2.556c.453-2.49.133-4.349-.98-5.684-1.33-1.594-3.765-2.369-7.446-2.369h-9.888l-6.107,33.515h7.259l2.417-13.255h1.773a3.306,3.306,0,0,1,2.6.769c.445.534.541,1.452.294,2.806l-.934,5.116c-.491,2.7-.36,3.276-.161,4.147l.095.417h7.45l-.213-.631a7.179,7.179,0,0,1,.049-3.715l.917-5.023C166.881,44.758,167.055,41.648,164.179,40.055Zm-2.16-8.759-.587,3.211c-.389,2.137-1.564,3.049-3.931,3.049h-1.886l1.65-9.046H159.9a2.37,2.37,0,0,1,1.885.584A2.7,2.7,0,0,1,162.019,31.3Z"
          fill="#130c0e"/>
    <path d="M181.9,22.531c-6.23,0-10.216,3.047-11.225,8.579-.732,4.014.685,6.9,5.23,10.642,3.771,3.084,4.278,4.648,3.918,6.615a2.989,2.989,0,0,1-3.365,2.772,2.473,2.473,0,0,1-1.953-.617,2.408,2.408,0,0,1-.259-1.984l.526-2.887h-6.916l-.437,2.391c-.476,2.618-.083,4.706,1.17,6.208,1.407,1.686,3.824,2.541,7.184,2.541,6.3,0,10.331-3.046,11.342-8.577.732-4.016-.685-6.9-5.23-10.642-3.77-3.084-4.278-4.648-3.92-6.616.355-1.948,1.361-2.817,3.261-2.817a2.3,2.3,0,0,1,1.84.583,2.53,2.53,0,0,1,.248,2.063l-.347,1.912h6.916l.258-1.416c.48-2.639.089-4.739-1.164-6.24C187.584,23.376,185.2,22.531,181.9,22.531Z"
          fill="#130c0e"/>
    <polygon
            points="212.368 22.903 191.958 22.903 190.934 28.51 197.511 28.51 192.426 56.418 199.686 56.418 204.772 28.51 211.346 28.51 212.368 22.903"
            fill="#130c0e"/>
    <path d="M243.222,33.446q-3.645,0-4.944,6.111a8.667,8.667,0,0,0-.085,4.555,2.308,2.308,0,0,0,2.415,1.5q3.587,0,4.875-6.055Q246.781,33.446,243.222,33.446Z"
          fill="url(#linear-gradient)"/>
    <path d="M283.439,22.543H218.065A2.956,2.956,0,0,0,215,24.65l-5.5,28.755c-.3,1.575,1.254,3.026,3.246,3.026h65.374a2.956,2.956,0,0,0,3.067-2.107l5.5-28.756C286.987,23.993,285.431,22.543,283.439,22.543Zm-52.2,11.3a8.17,8.17,0,0,0-.836-.224,7.916,7.916,0,0,0-.814-.126,8.79,8.79,0,0,0-.888-.042,5.3,5.3,0,0,0-3.843,1.528,8.707,8.707,0,0,0-2.215,4.555q-1.264,5.943,3.726,5.943A8.757,8.757,0,0,0,228.1,45.3a20.691,20.691,0,0,0,2.067-.561,13.464,13.464,0,0,1,.352,4.149q-.879.307-1.622.5a12.709,12.709,0,0,1-1.407.294q-.666.1-1.306.14t-1.312.043a9.459,9.459,0,0,1-4.027-.771,6.2,6.2,0,0,1-2.572-2.145,7.162,7.162,0,0,1-1.138-3.279,13.01,13.01,0,0,1,.265-4.149,15.133,15.133,0,0,1,1.529-4.163,12.992,12.992,0,0,1,2.57-3.322,11.2,11.2,0,0,1,7.71-2.971,15.087,15.087,0,0,1,2.509.2,11.076,11.076,0,0,1,2.524.785,9.671,9.671,0,0,1-.894,2.228,21.351,21.351,0,0,1-1.159,1.893Q231.671,33.979,231.239,33.838ZM250.7,39.557a17.922,17.922,0,0,1-1.4,4.134,12.2,12.2,0,0,1-2.3,3.28,9.856,9.856,0,0,1-3.192,2.159,10.469,10.469,0,0,1-4.116.771,8.316,8.316,0,0,1-3.8-.771,5.36,5.36,0,0,1-2.288-2.159,7.522,7.522,0,0,1-.9-3.28,15.414,15.414,0,0,1,.36-4.134,18.3,18.3,0,0,1,1.4-4.163,12.35,12.35,0,0,1,2.3-3.322,10.1,10.1,0,0,1,3.214-2.2,10.272,10.272,0,0,1,4.137-.8,7.934,7.934,0,0,1,3.783.8,5.523,5.523,0,0,1,2.265,2.2,7.648,7.648,0,0,1,.892,3.322A15.741,15.741,0,0,1,250.7,39.557Zm3.163,10.176a13.973,13.973,0,0,1-2.441-.253l4.254-20.015q.78-.111,1.409-.168t1.105-.056c.337,0,.711.019,1.124.056s.853.094,1.323.168L256.38,49.48A16.133,16.133,0,0,1,253.86,49.733Zm20.966-.253a7.773,7.773,0,0,1-.85.169,7.857,7.857,0,0,1-1.166.084,6.933,6.933,0,0,1-1.241-.1c-.36-.066-.62-.116-.78-.154l-4.208-10.932L264.257,49.48a12.016,12.016,0,0,1-2.3.253,10.853,10.853,0,0,1-2.217-.253L264,29.465q.639-.111,1.157-.168a9.282,9.282,0,0,1,.993-.056,8.062,8.062,0,0,1,1.036.07q.531.071.906.154l4.168,10.989L274.6,29.465q.751-.111,1.353-.168t1.077-.056a9.413,9.413,0,0,1,1,.056q.521.057,1.086.168Z"
          fill="url(#linear-gradient-2)"/>
    <circle cx="39.685" cy="39.685" r="39.685" fill="#fff"/>
    <path d="M56.156,59.634c-.733-2.935-2.395-5.094-5.259-7.612l-.012-.011h0c-2.871-2.523-8.195-6.212-8.195-6.212l-5.1-3.548a29.817,29.817,0,0,1,.535-4.607,6.515,6.515,0,0,1,3.249-4.413c1.229-.814,4.02-1.7,5.658-2.546a17.29,17.29,0,0,0,3.5-2.776,5.912,5.912,0,0,1,3.2-1.811,1.71,1.71,0,0,1,2.106,1.456,4.9,4.9,0,0,0-.242-3.235,3.18,3.18,0,0,0-2.893-1.912,7.559,7.559,0,0,0-4.092.923,3.463,3.463,0,0,1-3.346.175,12.758,12.758,0,0,0-4.605-1.13,22.288,22.288,0,0,0-7.738,1.982c-3.127,1.4-3.724,2.106-6.442,3.436a5.659,5.659,0,0,1-4.833.244,8.607,8.607,0,0,0,5.606,1.877,12.974,12.974,0,0,0,5.732-2.36,4.359,4.359,0,0,0-.784,1.112,23.1,23.1,0,0,0-3.321,3.818,14.784,14.784,0,0,0-2.1,6.758,24.474,24.474,0,0,0,1.2,8.145,26.2,26.2,0,0,0,2.943,6.486q.122.192.25.382A45.871,45.871,0,0,0,37.268,61.1s3.111,3.356,2.546,5.844-1.945,3.674-5.3,5.113a25.725,25.725,0,0,1-5.712,1.615,35.59,35.59,0,0,0,20.407.064h0l.064-.02q.37-.11.736-.228l.022-.007q.378-.123.753-.253l.08-.029c.146-.051.29-.1.434-.157A12.429,12.429,0,0,0,55.5,67.475S56.89,62.573,56.156,59.634Z"
          fill="url(#linear-gradient-3)"/>
    <path d="M20.3,33.852A21.1,21.1,0,0,1,29.658,5.61a35.435,35.435,0,0,0-17.362,11A29.865,29.865,0,0,0,12,23.1c.393,4.871,1.3,7.708,2.154,9.328a16.779,16.779,0,0,1-3.768-7.261,37.894,37.894,0,0,1-.83-4.948,35.222,35.222,0,0,0-5.315,13.24,27.715,27.715,0,0,0,2.393,5.161,39.56,39.56,0,0,0,4.85,6s2.075,1.829,2.78,2.277a19.259,19.259,0,0,1-6.6-4.036A30.627,30.627,0,0,1,3.729,38c-.026.544-.042,1.091-.044,1.642A35.31,35.31,0,0,0,6.848,54.413c.46.306.9.553,1.26.752,1,.561,5.643,2.174,5.9,2.287s5.681,1.654,7.725,2.032a34.511,34.511,0,0,1-7.1-.469c-2.075-.432-4.57-.984-6.15-1.434a35.522,35.522,0,0,0,20.32,16.087,25.725,25.725,0,0,0,5.712-1.615c3.35-1.439,4.729-2.624,5.3-5.113S37.268,61.1,37.268,61.1a45.871,45.871,0,0,1-6.092-6.841,17.991,17.991,0,0,1-5.6-3.828,21.938,21.938,0,0,1-5.5-11.114,86.309,86.309,0,0,0,.083,8.792,25.825,25.825,0,0,0,1.358,5.245,28.875,28.875,0,0,1-2.989-6.533,16.184,16.184,0,0,1,.1-8.512C19.142,36.62,19.949,34.668,20.3,33.852Z"
          fill="url(#linear-gradient-4)"/>
    <path d="M50.871,73.195l-.08.029Z" fill="#0c2031"/>
    <path d="M50.038,73.477l-.022.007Z" fill="#0c2031"/>
    <path d="M51.3,73.045l.01-.007c-.144.053-.288.106-.434.157C51.013,73.146,51.155,73.1,51.3,73.045Z"
          fill="url(#linear-gradient-5)"/>
    <path d="M50.791,73.224q-.375.13-.753.253Q50.416,73.354,50.791,73.224Z" fill="url(#linear-gradient-6)"/>
    <path d="M74.518,38.274a30.621,30.621,0,0,1-3.942,4.792,19.249,19.249,0,0,1-6.629,3.992c.707-.443,2.8-2.258,2.8-2.258a39.633,39.633,0,0,0,4.889-5.968,27.6,27.6,0,0,0,2.408-5.095,35.224,35.224,0,0,0-5.213-13.29,37.846,37.846,0,0,1-.859,4.907,16.778,16.778,0,0,1-3.815,7.236c.87-1.614,1.789-4.445,2.214-9.313a29.791,29.791,0,0,0-.244-6.454A35.442,35.442,0,0,0,48.8,5.673a21.1,21.1,0,0,1,9.192,28.273c.334.8,1.141,2.785,1.651,4.493a16.193,16.193,0,0,1,.047,8.513,28.916,28.916,0,0,1-3.032,6.513,25.851,25.851,0,0,0,1.392-5.236,86.3,86.3,0,0,0,.14-8.791,21.933,21.933,0,0,1-5.574,11.077,16.724,16.724,0,0,1-1.72,1.507c2.864,2.518,4.526,4.677,5.259,7.612s-.658,7.841-.658,7.841a12.429,12.429,0,0,1-4.193,5.563A35.55,35.55,0,0,0,69.626,57.789c-1.584.439-4.063.97-6.128,1.386a34.5,34.5,0,0,1-7.1.423c2.046-.365,7.478-1.872,7.738-1.982s4.912-1.694,5.918-2.248c.347-.192.778-.428,1.226-.72a35.305,35.305,0,0,0,3.272-14.771C74.552,39.34,74.54,38.806,74.518,38.274Z"
          fill="#091f35"/>
    <path d="M31.176,54.255c-.086-.127-.168-.254-.25-.382h0a20.171,20.171,0,0,0,1.915,2.878,35.058,35.058,0,0,1,4.477,6.241,8.047,8.047,0,0,1,.954,4.027,5.164,5.164,0,0,1-2.047,3.618,11.806,11.806,0,0,1-3.686,1.939A24.328,24.328,0,0,1,28.7,73.635l.11.033a25.725,25.725,0,0,0,5.712-1.615c3.35-1.439,4.729-2.624,5.3-5.113S38.4,62.218,37.268,61.1A39.879,39.879,0,0,1,31.176,54.255Z"
          fill="#091f35"/>
    <path d="M37.59,42.251l.07-1.2a16.328,16.328,0,0,1-5.112-5.66,7.469,7.469,0,0,1-.241-6.906c-.964,1.232-1.62,4.726.07,7.937A20.752,20.752,0,0,0,37.59,42.251Z"
          fill="#091f35"/>
</svg>
